<svg xmlns="http://www.w3.org/2000/svg" xmlns:xlink="http://www.w3.org/1999/xlink" width="34.619" height="51.076" viewBox="0 0 34.619 51.076"><defs><clipPath id="a"><rect width="34.619" height="51.076" fill="#fff"/></clipPath></defs><g clip-path="url(#a)"><path d="M66.461,157.242H58.076a1.247,1.247,0,0,1-1.239-1.1h0l-2.785-23.017-.7-5.78a1.251,1.251,0,0,1,1.1-1.389,1.293,1.293,0,0,1,.147-.008H78.332a1.252,1.252,0,0,1,1.252,1.252,1.294,1.294,0,0,1-.017.206L77.2,147l-1.106,9.145a1.251,1.251,0,0,1-1.339,1.1Z" transform="translate(-44.965 -106.17)" fill="#fff" fill-rule="evenodd"/><path d="M37.658,104.627l1.082-10.11H16.058l.575,4.747a1.355,1.355,0,1,1-2.692.318l-.75-6.2a1.357,1.357,0,0,1,1.338-1.58H40.247v0a1.4,1.4,0,0,1,.143.008,1.354,1.354,0,0,1,1.2,1.489l-1.248,11.652.928.113a.86.86,0,0,1,.5,1.469l-2.839,3.341a.857.857,0,0,1-1.428-.188l-1.981-3.985a.856.856,0,0,1,.871-1.23v0l.916.112.174.021Zm-8.009,18.378h5.622l1.054-8.715a1.355,1.355,0,0,1,2.692.318l-1.2,9.907h0a1.352,1.352,0,0,1-1.342,1.193H29.649v.933h0a.857.857,0,0,1-1.327.715l-3.715-2.45a.846.846,0,0,1-.258-.254.856.856,0,0,1,.245-1.185l3.661-2.414a.86.86,0,0,1,1.4.671v1.281ZM15.06,109.323l.059-.007,1.84,15.2a1.356,1.356,0,0,0,1.346,1.2h2.4a1.356,1.356,0,0,0,0-2.713h-1.2l-1.694-14,1.042-.12a.86.86,0,0,0,.506-1.466l-2.818-3.359a.857.857,0,0,0-1.429.178l-2.007,3.972a.856.856,0,0,0,.863,1.235v0l.917-.106Z" transform="translate(-10.97 -77.39)" fill="#fff" fill-rule="evenodd"/><path d="M57.672,7.788A6.475,6.475,0,0,1,50.135.112a6.475,6.475,0,0,1,7.537,7.677" transform="translate(-42.15 -0.001)" fill="#fff" fill-rule="evenodd"/><path d="M112.676,24.609a3.654,3.654,0,0,0,4.253-4.332,3.654,3.654,0,0,0-4.253,4.332" transform="translate(-94.921 -17.041)" fill="#fff" fill-rule="evenodd"/><path d="M16.417,60.723H31.478a1.357,1.357,0,0,1,0,2.713H1.356a1.357,1.357,0,1,1,0-2.713Z" transform="translate(0.001 -51.189)" fill="#fff"/></g></svg>