<svg xmlns="http://www.w3.org/2000/svg" width="55" height="184" viewBox="0 0 55 184">
  <g id="Navi" transform="translate(0.423 -7)">
    <circle id="Ellipse_1" data-name="Ellipse 1" cx="20.5" cy="20.5" r="20.5" transform="translate(6.577 7)" fill="#d8eadb"/>
    <path id="Ellipse_1_copy_2" data-name="Ellipse 1 copy 2" d="M20.5,0A20.5,20.5,0,1,1,0,20.5,20.5,20.5,0,0,1,20.5,0Z" transform="translate(6.577 143)" fill="#d8eadb"/>
    <text id="_1" data-name="1" transform="translate(22.577 33.5)" font-size="16" font-family="OpenSans, Open Sans"><tspan x="0" y="0">1</tspan></text>
    <text id="_2" data-name="2" transform="translate(22.691 169.5)" font-size="16" font-family="OpenSans, Open Sans"><tspan x="0" y="0">2</tspan></text>
    <rect id="Rectangle_2" data-name="Rectangle 2" width="3" height="88" transform="translate(25.577 55)" fill="#d8eadb"/>
    <rect id="Rectangle_2_copy" data-name="Rectangle 2 copy" width="3" height="47" transform="translate(25.577 48)" fill="#d8eadb"/>
    <g id="Ellipse_1_copy" data-name="Ellipse 1 copy" transform="translate(-0.423 136)" fill="rgba(216,234,219,0)">
      <path d="M 27.5 53.5 C 23.98936080932617 53.5 20.58452987670898 52.81277084350586 17.38009071350098 51.4574089050293 C 14.28419971466064 50.1479606628418 11.50349998474121 48.2730598449707 9.115220069885254 45.88478088378906 C 6.726940155029297 43.49649810791016 4.852039813995361 40.71580123901367 3.542589902877808 37.61991119384766 C 2.187230110168457 34.41547012329102 1.5 31.01063919067383 1.5 27.5 C 1.5 23.98936080932617 2.187230110168457 20.58452987670898 3.542589902877808 17.38009071350098 C 4.852039813995361 14.28419971466064 6.726940155029297 11.50349998474121 9.115220069885254 9.115220069885254 C 11.50349998474121 6.726940155029297 14.28419971466064 4.852039813995361 17.38009071350098 3.542589902877808 C 20.58452987670898 2.187230110168457 23.98936080932617 1.5 27.5 1.5 C 31.01063919067383 1.5 34.41547012329102 2.187230110168457 37.61991119384766 3.542589902877808 C 40.71580123901367 4.852039813995361 43.49649810791016 6.726940155029297 45.88478088378906 9.115220069885254 C 48.2730598449707 11.50349998474121 50.1479606628418 14.28419971466064 51.4574089050293 17.38009071350098 C 52.81277084350586 20.58452987670898 53.5 23.98936080932617 53.5 27.5 C 53.5 31.57007026672363 52.58224868774414 35.46279144287109 50.77225112915039 39.07003021240234 C 49.00846862792969 42.58515167236328 46.50003814697266 45.63594055175781 43.31661987304688 48.13763046264648 C 38.92055892944336 51.59577178955078 33.30364990234375 53.5 27.5 53.5 Z" stroke="none"/>
      <path d="M 27.5 3 C 24.19120025634766 3 20.98297119140625 3.647361755371094 17.96442031860352 4.924098968505859 C 15.04732894897461 6.157920837402344 12.4268913269043 7.924880981445312 10.17588043212891 10.17588043212891 C 7.924880981445312 12.4268913269043 6.157920837402344 15.04732894897461 4.924098968505859 17.96442031860352 C 3.647361755371094 20.98297119140625 3 24.19120025634766 3 27.5 C 3 30.80879974365234 3.647361755371094 34.01702880859375 4.924098968505859 37.03557968139648 C 6.157920837402344 39.95267105102539 7.924880981445312 42.5731086730957 10.17588043212891 44.82411956787109 C 12.4268913269043 47.07511901855469 15.04732894897461 48.84207916259766 17.96442031860352 50.07590103149414 C 20.98297119140625 51.35263824462891 24.19120025634766 52 27.5 52 C 32.96878814697266 52 38.25634002685547 50.20978927612305 42.38977813720703 46.95822906494141 C 45.39833068847656 44.59395980834961 47.76752853393555 41.71364974975586 49.43156051635742 38.39730834960938 C 51.13584899902344 35.00074005126953 52 31.33436012268066 52 27.5 C 52 24.19120025634766 51.35263824462891 20.98297119140625 50.07590103149414 17.96442031860352 C 48.84207916259766 15.04732894897461 47.07511901855469 12.4268913269043 44.82411956787109 10.17588043212891 C 42.5731086730957 7.924880981445312 39.95267105102539 6.157920837402344 37.03557968139648 4.924098968505859 C 34.01702880859375 3.647361755371094 30.80879974365234 3 27.5 3 M 27.5 0 C 42.68782806396484 0 55 12.31216812133789 55 27.5 C 55 36.27856063842773 50.88669967651367 44.09642028808594 44.24345016479492 49.31703186035156 C 39.80641937255859 52.80739974975586 33.90925979614258 55 27.5 55 C 12.31216812133789 55 0 42.68782806396484 0 27.5 C 0 12.31216812133789 12.31216812133789 0 27.5 0 Z" stroke="none" fill="#d8eadb"/>
    </g>
  </g>
</svg>
